<?xml version="1.0" standalone="no"?>
<!DOCTYPE svg PUBLIC "-//W3C//DTD SVG 20010904//EN"
 "http://www.w3.org/TR/2001/REC-SVG-20010904/DTD/svg10.dtd">
<svg version="1.0" xmlns="http://www.w3.org/2000/svg"
 width="1667.000000pt" height="1667.000000pt" viewBox="0 0 1667.000000 1667.000000"
 preserveAspectRatio="xMidYMid meet">
<metadata>
Created by potrace 1.14, written by Peter Selinger 2001-2017
</metadata>
<g transform="translate(0.000000,1667.000000) scale(0.100000,-0.100000)"
fill="#000000" stroke="none">
<path d="M8437 16274 c-1 -1 -42 -4 -92 -8 -122 -8 -290 -34 -461 -71 -184
-40 -553 -193 -736 -304 -37 -23 -69 -41 -72 -41 -3 0 3 18 13 40 10 23 16 52
13 66 -11 58 -103 85 -154 44 -14 -11 -36 -41 -48 -67 -22 -46 -109 -282 -115
-313 -2 -8 -8 -33 -13 -55 -21 -79 -21 -93 2 -127 l22 -33 249 0 c240 0 251 1
285 22 20 12 45 39 57 60 18 33 19 43 10 72 -17 48 -53 72 -115 74 -29 1 -51
6 -49 11 8 25 264 184 402 250 153 73 394 162 489 180 12 2 51 11 89 20 37 9
82 18 100 21 17 3 43 7 57 10 111 20 495 28 610 12 30 -4 78 -9 105 -13 28 -3
64 -9 80 -14 17 -4 48 -11 70 -15 183 -29 510 -155 740 -285 106 -60 415 -284
415 -301 0 -3 -38 -13 -83 -22 -89 -18 -326 -92 -341 -108 -6 -5 -16 -9 -24
-9 -8 0 -77 -32 -154 -71 l-141 -70 -70 6 c-39 4 -79 8 -89 10 -10 2 -55 7
-101 10 -45 4 -93 8 -107 11 -118 19 -773 26 -1055 11 -82 -4 -188 -10 -235
-12 -104 -6 -202 -17 -270 -30 -14 -3 -36 -7 -50 -10 -14 -3 -47 -9 -75 -15
-27 -5 -66 -12 -85 -15 -72 -11 -310 -58 -385 -75 -27 -6 -61 -14 -75 -16 -14
-3 -52 -12 -85 -20 -205 -54 -305 -83 -512 -150 l-233 -76 -92 31 c-178 57
-350 100 -473 117 -27 3 -58 8 -68 10 -42 8 -189 17 -272 17 -86 0 -253 -11
-265 -18 -3 -1 -28 -5 -56 -9 -117 -14 -317 -83 -449 -157 -271 -149 -495
-397 -639 -705 l-29 -62 -106 -17 c-58 -9 -146 -26 -196 -37 -49 -10 -99 -21
-110 -23 -11 -3 -32 -7 -47 -11 -15 -3 -30 -5 -33 -5 -2 0 -19 -5 -37 -10 -18
-6 -42 -12 -53 -14 -11 -3 -69 -19 -130 -36 -491 -140 -938 -344 -1330 -608
-591 -397 -1025 -962 -1235 -1606 -12 -38 -26 -79 -30 -90 -8 -20 -48 -171
-55 -207 -2 -11 -6 -27 -9 -36 -3 -9 -8 -33 -11 -52 -3 -19 -12 -71 -20 -115
-27 -152 -42 -318 -44 -470 l-1 -80 -46 76 c-53 86 -88 112 -149 111 -96 -1
-168 -77 -167 -177 0 -62 24 -114 103 -225 33 -47 68 -96 77 -110 47 -71 277
-373 326 -427 53 -58 96 -83 155 -92 5 0 12 -18 16 -38 13 -75 67 -290 100
-403 34 -118 131 -403 145 -429 5 -9 -1 -28 -15 -50 -112 -180 -196 -398 -230
-601 -14 -85 -15 -355 -1 -430 56 -302 163 -525 386 -803 27 -34 61 -71 141
-154 l80 -83 -35 -112 c-19 -62 -44 -147 -55 -188 -10 -41 -22 -82 -25 -90 -3
-8 -8 -26 -11 -40 -6 -32 -16 -78 -49 -220 -14 -63 -28 -128 -31 -145 -16 -92
-55 -350 -60 -410 -4 -38 -9 -83 -11 -100 -27 -227 -21 -688 11 -930 10 -74
27 -190 31 -210 48 -250 135 -556 194 -678 11 -22 20 -44 20 -49 0 -4 21 -51
46 -104 158 -334 356 -616 614 -875 196 -197 339 -311 577 -462 404 -256 964
-463 1493 -552 19 -3 49 -10 67 -14 17 -5 33 -7 36 -5 2 2 26 0 53 -5 27 -5
74 -12 104 -15 30 -4 71 -9 90 -11 19 -3 62 -7 95 -10 33 -2 87 -7 120 -10
209 -18 541 -22 795 -10 l145 7 44 -94 c24 -51 61 -122 82 -157 22 -34 39 -65
39 -67 0 -12 117 -181 179 -259 146 -182 325 -344 471 -424 154 -84 290 -136
442 -168 91 -18 352 -24 466 -10 64 8 280 60 317 76 11 5 58 23 105 41 164 62
324 150 540 293 l135 90 330 3 c182 1 362 5 400 8 39 3 106 8 150 11 44 3 96
8 115 10 19 3 64 7 100 10 36 3 76 8 90 10 14 2 45 7 70 10 25 4 56 8 70 10
14 2 45 7 70 10 25 3 68 10 95 15 28 5 64 12 80 15 68 11 94 17 180 35 50 10
101 21 115 24 159 32 492 126 734 207 l208 71 89 -22 c49 -12 92 -22 96 -22 5
0 18 -4 29 -9 12 -4 42 -11 65 -14 24 -4 66 -11 93 -16 127 -24 406 -33 541
-17 439 50 807 275 1053 643 73 110 192 341 192 374 0 12 13 21 37 26 76 14
387 116 551 179 122 47 363 156 383 173 8 7 19 13 24 13 16 0 231 123 345 198
107 70 312 221 335 246 6 6 28 26 50 45 87 73 214 201 330 332 79 89 285 375
285 396 0 3 8 17 19 31 30 44 127 231 171 332 41 93 145 392 154 440 2 14 11
52 19 85 18 70 44 201 52 265 4 25 9 61 12 80 30 194 34 617 7 855 -9 80 -33
255 -39 280 -1 6 -5 33 -10 60 -4 28 -14 79 -22 115 -7 36 -16 76 -19 90 -3
14 -12 52 -21 85 -8 33 -17 72 -20 86 -2 15 -21 84 -42 154 l-39 127 84 100
c107 128 193 257 255 384 46 93 114 274 103 274 -3 0 0 8 5 19 6 10 13 36 16
57 2 22 7 50 10 64 7 35 15 145 16 210 3 412 -192 839 -548 1203 l-76 78 17
57 c9 31 21 66 26 77 5 11 18 54 30 95 12 41 24 82 27 90 3 8 7 20 8 25 2 6
12 42 23 80 24 80 88 334 97 382 3 18 14 77 24 130 11 54 22 114 25 133 13 86
25 179 30 225 8 78 18 185 22 235 4 61 4 465 -1 515 -2 22 -6 74 -10 115 -3
41 -8 89 -10 105 -2 17 -6 53 -9 80 -3 28 -13 88 -22 135 -8 47 -18 99 -20
115 -22 122 -126 473 -174 580 -76 172 -99 220 -138 295 -60 114 -56 107 -146
244 -245 374 -528 658 -911 913 -87 58 -113 74 -258 154 -168 94 -420 202
-641 274 -231 76 -548 152 -751 181 -16 2 -39 5 -50 8 -11 2 -45 7 -75 10 -30
4 -71 9 -90 12 -83 10 -164 18 -305 29 -38 4 -169 8 -290 10 -139 2 -221 8
-223 14 -2 6 -33 52 -69 103 -264 376 -596 625 -936 703 -173 39 -301 48 -490
31 l-77 -7 -73 64 c-102 90 -336 250 -512 349 -220 124 -487 235 -655 273 -8
1 -33 8 -55 14 -22 5 -53 13 -70 15 -16 3 -39 8 -50 10 -21 4 -93 15 -135 21
-89 13 -413 27 -423 19z m2418 -799 c217 -45 344 -93 481 -180 30 -19 58 -35
63 -35 5 0 11 -3 13 -8 2 -4 28 -25 58 -47 81 -59 95 -71 200 -175 141 -139
316 -359 288 -361 -32 -2 -141 -6 -229 -9 l-96 -2 -194 80 c-249 103 -607 231
-749 267 -8 2 -91 24 -185 50 -146 39 -536 123 -645 139 -19 2 -56 8 -82 11
-74 11 -71 13 85 91 37 19 73 34 80 34 7 0 17 4 23 9 13 13 269 98 339 112 82
17 81 17 155 24 36 4 67 9 69 11 6 5 293 -4 326 -11z m-5330 -489 c192 -26
349 -59 517 -110 65 -20 121 -36 125 -36 5 0 -59 -27 -142 -61 -405 -162 -813
-370 -1141 -580 l-61 -40 -124 -4 c-227 -8 -443 -23 -584 -41 -22 -3 -56 -7
-75 -9 -19 -2 -54 -7 -78 -10 l-43 -6 37 72 c152 303 358 521 632 671 131 72
347 136 517 154 33 3 61 7 63 8 5 5 309 -2 357 -8z m6509 -416 c20 -34 36 -63
36 -66 0 -2 11 -22 25 -44 29 -45 22 -49 -32 -19 -75 42 -332 169 -345 170
-36 4 70 15 168 17 l111 3 37 -61z m486 46 c14 -3 65 -7 114 -11 50 -4 97 -8
105 -10 9 -1 43 -6 76 -9 85 -10 210 -29 330 -51 18 -3 194 -40 235 -50 119
-27 355 -94 405 -115 11 -4 43 -16 70 -25 174 -60 485 -200 594 -269 22 -15
43 -26 46 -26 22 0 343 -225 456 -320 77 -63 306 -293 370 -370 30 -36 56 -67
59 -70 3 -3 28 -36 56 -75 203 -278 340 -539 445 -845 76 -221 146 -531 164
-722 3 -34 8 -72 10 -83 23 -115 23 -679 1 -845 -2 -14 -7 -54 -11 -90 -6 -62
-17 -149 -30 -235 -3 -22 -15 -89 -27 -150 -11 -60 -22 -121 -25 -135 -25
-142 -174 -681 -198 -719 -14 -24 -32 10 -50 95 -14 67 -16 91 -7 105 16 26
104 249 130 329 75 231 101 403 97 620 -2 91 -6 176 -9 190 -3 14 -10 48 -16
75 -28 127 -48 189 -100 300 -75 157 -160 276 -295 410 -174 174 -409 327
-660 430 -49 20 -106 43 -125 51 -25 10 -47 33 -75 77 -46 72 -193 281 -245
348 -19 25 -64 84 -99 130 -61 78 -215 264 -250 300 -9 9 -45 49 -81 90 -66
76 -390 402 -470 474 -116 104 -205 180 -314 269 l-119 98 59 -7 c74 -7 143
-16 169 -21 11 -2 47 -9 80 -14 162 -26 506 -131 664 -202 396 -177 697 -380
996 -673 90 -87 208 -219 275 -305 19 -25 38 -49 43 -55 85 -107 232 -343 312
-503 133 -265 221 -516 285 -812 63 -295 65 -257 4 120 -3 19 -12 62 -21 95
-8 33 -16 67 -18 75 -23 110 -111 373 -180 535 -55 131 -155 322 -233 449 -52
84 -192 286 -217 312 -5 6 -23 28 -40 50 -101 129 -269 305 -415 433 -278 246
-619 459 -965 603 -97 41 -294 113 -335 123 -8 2 -55 15 -105 28 -97 27 -209
53 -265 62 -19 3 -46 8 -60 10 -48 10 -65 13 -120 20 -30 3 -66 8 -80 10 -31
4 -159 14 -263 20 -65 4 -84 9 -120 33 -23 16 -98 63 -167 104 -188 114 -227
141 -241 168 -7 14 -33 60 -56 102 -24 43 -43 80 -43 84 0 7 452 -3 500 -10z
m-7915 -601 c-155 -109 -274 -199 -435 -328 -50 -40 -136 -112 -145 -121 -5
-6 -26 -24 -45 -40 -45 -37 -229 -206 -249 -228 -24 -27 -30 -22 -21 20 5 20
11 54 14 75 8 51 18 110 20 122 2 6 8 37 15 70 8 33 14 65 16 70 6 30 29 111
57 196 l30 96 132 21 c72 12 154 24 181 28 28 4 58 8 69 10 10 2 51 6 90 9 39
4 78 9 86 11 8 3 53 8 100 11 47 3 87 7 89 9 2 2 14 4 25 4 16 0 8 -9 -29 -35z
m-785 -79 c0 -3 -5 -17 -10 -32 -41 -107 -110 -466 -114 -594 -2 -43 -7 -50
-101 -146 -55 -56 -138 -143 -185 -194 -139 -152 -156 -172 -240 -275 -36 -44
-68 -82 -71 -85 -14 -12 -203 -264 -274 -365 -42 -60 -80 -109 -85 -108 -15 4
-166 -58 -310 -128 -477 -231 -784 -573 -899 -999 -39 -146 -50 -242 -46 -425
4 -147 6 -169 26 -271 5 -28 12 -63 15 -78 2 -15 12 -53 20 -84 9 -32 19 -70
24 -87 14 -56 67 -200 95 -260 51 -111 41 -142 -80 -239 -206 -166 -378 -342
-516 -528 l-57 -77 -20 57 c-86 240 -170 535 -207 730 -12 60 -12 78 -2 83 30
18 54 47 213 259 92 124 194 257 226 297 66 82 88 133 88 207 0 104 -38 174
-112 206 -91 39 -135 26 -234 -71 -40 -38 -74 -69 -77 -69 -7 0 7 305 18 372
2 13 6 50 10 83 3 33 8 67 10 75 2 8 6 32 9 52 3 21 15 81 27 135 187 875 713
1604 1495 2075 287 172 634 318 934 393 279 68 430 100 430 91z m-1128 -1888
c-166 -246 -373 -618 -504 -903 -20 -44 -55 -118 -76 -165 -57 -125 -166 -410
-232 -610 -59 -177 -160 -536 -160 -567 0 -40 -35 38 -100 227 -26 73 -68 245
-84 342 -23 136 -23 418 -1 498 2 8 6 27 9 41 19 115 95 315 153 407 18 29 33
55 33 58 0 2 5 10 10 17 6 7 30 39 54 73 80 112 217 244 373 360 46 34 205
129 274 165 68 35 279 127 292 128 4 1 -14 -32 -41 -71z m12151 -138 c127 -53
418 -215 447 -249 3 -3 31 -26 63 -49 124 -93 278 -265 363 -407 92 -154 162
-359 181 -531 15 -139 8 -345 -17 -484 -5 -30 -11 -66 -14 -80 -2 -14 -7 -32
-10 -40 -3 -8 -8 -26 -10 -40 -12 -61 -50 -180 -98 -302 l-51 -132 -54 214
c-59 235 -59 236 -96 361 -167 561 -430 1155 -731 1649 -31 50 -60 100 -67
112 -13 24 -21 26 94 -22z m-13194 -2422 c-10 -51 -21 -109 -24 -128 -3 -19
-10 -60 -15 -90 -5 -30 -12 -75 -15 -100 -3 -25 -8 -56 -10 -70 -2 -14 -7 -43
-9 -65 -3 -22 -8 -58 -10 -80 -3 -22 -8 -67 -11 -100 -3 -33 -8 -80 -11 -103
-2 -24 -18 -83 -34 -130 -48 -139 -76 -291 -79 -432 -2 -69 -4 -126 -5 -128
-7 -6 -219 428 -284 578 -105 246 -113 269 -100 294 31 59 178 235 293 352
105 107 314 294 328 294 2 0 -4 -42 -14 -92z m14365 -453 c137 -182 221 -339
283 -525 58 -177 83 -401 61 -565 -4 -33 -10 -76 -12 -95 -3 -19 -7 -42 -10
-50 -3 -8 -7 -26 -10 -40 -29 -165 -204 -507 -339 -665 -19 -22 -46 -53 -59
-69 l-24 -29 -49 139 c-26 76 -48 153 -48 169 -1 27 6 108 18 225 25 232 25
970 0 1140 -2 14 -6 65 -10 114 -4 50 -8 97 -10 105 -1 9 -6 43 -9 76 -7 63
-34 260 -42 298 -2 12 -1 31 3 42 5 17 18 7 90 -70 47 -50 122 -139 167 -200z
m-14890 -410 c8 -16 29 -61 46 -100 48 -105 167 -340 216 -426 37 -66 46 -94
63 -195 11 -66 34 -162 52 -214 17 -52 33 -113 34 -135 2 -22 6 -72 10 -110 7
-69 6 -74 -53 -225 -32 -85 -74 -198 -92 -250 -18 -52 -36 -99 -40 -103 -4 -5
-46 34 -93 85 -326 354 -494 725 -501 1107 -2 87 5 182 19 256 3 17 8 45 12
64 17 105 130 380 196 478 l21 31 48 -116 c27 -65 55 -130 62 -147z m442
-1371 c1 -8 5 -41 8 -72 7 -65 9 -81 37 -252 10 -69 24 -145 29 -170 23 -104
23 -150 0 -150 -9 0 -216 175 -237 202 -13 15 23 130 118 380 32 84 40 95 45
62z m14304 -285 c0 -8 -13 -27 -28 -42 l-28 -27 -25 48 c-24 45 -25 50 -14
125 6 43 12 80 13 82 1 3 2 15 3 28 0 23 78 -186 79 -214z m-103 -117 l-35
-35 13 62 c7 33 11 61 8 61 -2 0 -1 5 3 11 4 8 14 -3 26 -26 l20 -38 -35 -35z
m141 8 c27 -87 92 -344 92 -361 -1 -8 -17 27 -36 76 -19 50 -58 138 -86 196
l-50 107 23 31 c13 17 26 28 30 24 3 -5 16 -37 27 -73z m26 -267 c68 -180 125
-409 142 -573 9 -79 10 -283 3 -335 -4 -27 -10 -69 -13 -92 -8 -62 -34 -171
-58 -238 -159 -456 -548 -800 -1161 -1026 -85 -32 -86 -31 -37 41 9 14 28 45
42 70 14 25 43 77 65 115 240 421 440 876 584 1330 23 72 46 135 51 140 6 7 9
7 7 0 -2 -5 7 -41 19 -79 24 -75 28 -93 46 -211 12 -78 13 -231 2 -310 -2 -22
-14 -76 -26 -120 -11 -44 -23 -87 -25 -95 -27 -103 -94 -244 -173 -360 -71
-105 -69 -108 7 -10 28 36 60 76 71 90 75 95 192 333 231 468 22 77 21 71 44
207 6 33 6 192 0 240 -14 122 -89 400 -116 429 -14 16 -11 55 16 164 14 56 27
117 30 135 3 17 10 48 15 67 5 19 11 51 14 70 12 75 17 86 57 123 l41 38 38
-79 c21 -43 58 -133 84 -199z m-14474 140 c68 -59 88 -76 127 -106 23 -18 43
-36 43 -41 0 -4 -18 -47 -41 -95 -93 -196 -175 -440 -204 -606 -2 -16 -7 -41
-10 -55 -20 -92 -27 -398 -12 -500 47 -323 173 -574 402 -805 134 -135 149
-148 280 -236 186 -125 459 -251 702 -324 l91 -28 54 -74 c115 -160 328 -425
428 -533 8 -9 55 -60 104 -113 361 -395 853 -817 1291 -1106 l50 -33 -81 6
c-45 4 -93 9 -105 11 -13 2 -50 6 -83 10 -32 4 -68 8 -80 10 -11 2 -57 9 -101
15 -44 7 -89 14 -100 16 -30 6 -125 23 -165 29 -75 12 -431 119 -515 154 -11
5 -78 32 -150 61 -576 233 -1052 576 -1396 1005 -193 241 -354 519 -459 793
-7 18 -14 31 -16 29 -4 -3 50 -150 87 -237 45 -108 176 -357 244 -465 145
-231 285 -406 485 -605 176 -176 264 -252 435 -377 74 -54 301 -203 309 -203
2 0 39 -21 82 -46 239 -141 644 -308 979 -403 108 -30 376 -94 445 -105 43 -7
79 -14 145 -26 53 -10 88 -15 170 -25 28 -4 61 -8 74 -10 13 -2 57 -7 98 -10
41 -4 83 -8 92 -10 10 -2 69 -6 132 -10 160 -9 170 -11 214 -32 56 -26 57 -48
3 -49 -116 -4 -574 -4 -653 0 -124 7 -245 16 -276 22 -15 2 -55 6 -90 8 -67 5
-177 20 -269 36 -30 5 -71 12 -90 14 -19 3 -80 14 -136 25 -55 12 -110 23
-121 26 -161 31 -525 146 -732 231 -146 61 -417 196 -488 244 -24 17 -46 30
-49 30 -5 0 -206 134 -232 155 -9 7 -64 50 -120 96 -114 90 -307 277 -393 379
-30 36 -56 67 -59 70 -19 17 -129 173 -192 270 -125 194 -229 406 -313 637
-72 200 -143 505 -170 728 -4 28 -8 61 -10 75 -25 153 -25 733 0 910 2 14 7
54 10 90 4 36 9 72 10 81 2 9 6 40 10 69 4 29 9 62 11 74 2 12 11 59 19 106
17 94 20 112 36 187 5 29 10 54 9 55 -1 2 3 15 9 31 6 15 13 38 15 52 7 40 66
263 76 290 5 14 7 25 4 25 -2 0 0 9 6 21 6 11 13 28 15 37 1 9 11 41 20 69
l17 53 27 -23 c14 -12 37 -32 51 -44z m234 -229 c4 -21 22 -100 42 -174 19
-74 37 -144 39 -155 5 -25 90 -303 110 -359 67 -193 92 -262 150 -406 37 -91
82 -198 101 -238 19 -41 34 -76 34 -79 0 -2 45 -95 100 -205 149 -298 325
-599 494 -843 30 -44 53 -81 51 -83 -11 -11 -304 103 -455 178 -232 115 -381
220 -545 384 -173 173 -266 313 -340 511 -64 172 -88 309 -87 505 1 129 11
228 37 359 22 113 98 355 141 449 13 29 24 55 24 57 0 3 19 43 42 91 45 91 49
92 62 8z m14412 -1061 c-6 -131 -13 -225 -21 -278 -3 -16 -7 -55 -11 -85 -10
-95 -54 -300 -90 -429 -219 -777 -724 -1410 -1484 -1859 -101 -59 -335 -178
-440 -222 -41 -18 -88 -38 -105 -45 -82 -37 -371 -138 -430 -151 -5 -1 -39
-11 -75 -23 -35 -11 -66 -18 -68 -16 -3 2 -2 14 1 27 4 13 6 25 5 28 -1 3 4
15 11 28 7 13 14 31 16 40 3 9 18 73 35 142 17 69 33 135 36 146 2 12 34 50
71 85 425 402 747 781 1071 1257 l111 164 93 32 c132 46 276 109 398 174 58
30 107 58 110 61 3 3 17 12 32 20 56 29 226 164 307 243 225 223 352 454 416
761 12 60 17 21 11 -100z m-2695 -2854 c-16 -63 -42 -150 -58 -194 l-28 -80
-135 -32 c-74 -18 -146 -34 -160 -36 -56 -10 -147 -27 -170 -33 -80 -17 -83
-12 -18 32 24 16 45 31 48 34 3 3 41 32 85 64 89 66 321 253 375 302 58 53 85
73 88 65 1 -4 -11 -59 -27 -122z m-101 -313 c0 -7 -62 -142 -87 -191 -166
-317 -416 -555 -713 -681 -95 -40 -233 -81 -305 -90 -27 -3 -53 -8 -56 -9 -36
-22 -463 -22 -584 -1 -11 2 -45 8 -75 12 -68 10 -47 6 -168 34 l-103 23 129
52 c415 167 875 407 1232 644 151 100 166 107 240 117 25 3 52 7 60 9 8 2 31
7 50 10 42 7 126 22 160 30 14 3 37 7 52 10 14 3 50 11 80 19 52 15 88 19 88
12z m-7604 -717 c49 -22 109 -50 134 -61 162 -74 544 -213 770 -282 249 -75
729 -187 910 -211 25 -3 56 -8 70 -10 52 -9 103 -17 220 -31 80 -9 97 -11 180
-18 41 -4 93 -9 115 -11 22 -3 90 -8 150 -11 61 -3 111 -7 113 -9 6 -6 -250
-165 -358 -223 -205 -109 -431 -192 -615 -228 -22 -4 -47 -9 -55 -10 -89 -17
-278 -23 -390 -11 -411 42 -758 254 -1048 642 -29 39 -56 75 -60 80 -16 22
-43 66 -69 112 -14 26 -29 50 -33 53 -9 7 -130 249 -130 261 0 13 -3 14 96
-32z"/>
<path d="M16011 10954 c0 -11 3 -14 6 -6 3 7 2 16 -1 19 -3 4 -6 -2 -5 -13z"/>
<path d="M1496 4247 c3 -10 9 -15 12 -12 3 3 0 11 -7 18 -10 9 -11 8 -5 -6z"/>
</g>
</svg>
